<svg xmlns="http://www.w3.org/2000/svg" xmlns:xlink="http://www.w3.org/1999/xlink" version="1.1" x="0px" y="0px" viewBox="0 0 283.46 283.46" enable-background="new 0 0 283.46 283.46" xml:space="preserve"><g><path d="M207.387,258.223c-2.304,0-3.232,3.406-3.232,3.406s4.449-0.639,4.768,1.268c0.317,1.906,0.317,6.196-7.31,3.019   c-7.628-3.178-4.754-12.686-12.076-12.686c-3.415,0-10.764,0-18.375,0c1.404,0,2.068-1.47,2.068-2.873v-5.028   c0-1.404-0.664-2.099-2.068-2.099h-3.932v-32.221c11-2.1,20.223-11.384,21.895-23.011c2.213,2.419,4.869,5.14,6.533,5.605   c3.099,0.869,10.295-4.772,11.609-8.243c1.312-3.473-3.513-6.51-5.683-9.113c-2.17-2.604,22.552-19.093,21.683-25.385   c-0.719-5.211-22.275-19.682-29.661-24.543c-1.586-13.604-13.149-24.09-27.174-24.09h-59.218   c-13.853,0-25.297,10.229-27.103,23.594c-6.527,4.269-29.667,19.691-30.412,25.096c-0.867,6.291,23.867,22.752,21.697,25.355   c-2.169,2.604-6.965,5.627-5.652,9.099c1.313,3.472,8.569,9.106,11.667,8.239c1.821-0.511,4.945-3.724,7.232-6.281   c1.432,12.072,11.587,21.752,22.587,23.747v32.151h-3.951c-1.405,0-2.049,0.694-2.049,2.099v5.028c0,1.403,0.644,2.873,2.049,2.873   c-7.547,0-14.789,0-18.162,0c-7.323,0-4.449,9.508-12.077,12.686c-7.627,3.178-7.627-1.029-7.309-2.937   c0.318-1.905,4.767-1.308,4.767-1.308s-0.928-3.427-3.231-3.427c-2.303,0-10.133-0.024-10.133,9.492   c0,11.197,10.16,9.493,10.16,9.493s47.506,0,53.955,0c6.448,0,5.981-7.351,5.981-7.351v-11.627v-5.022h1.896   c1.404,0,3.104-1.47,3.104-2.873v-5.028c0-1.404-1.7-2.099-3.104-2.099h-3.896v-32h24v32h-3.916c-1.404,0-3.084,0.694-3.084,2.099   v5.028c0,1.403,1.68,2.873,3.084,2.873h1.916v5.022v11.627c0,0-0.063,7.351,6.387,7.351c6.448,0,53.742,0,53.742,0   s10.16,1.693,10.16-9.504C217.519,258.21,209.689,258.223,207.387,258.223z M158.23,183.496c0,3.501-2.444,5.734-5.945,5.734h-33.5   c-3.501,0-5.554-2.233-5.554-5.734v-5.266H86.927H86.23v-9h-0.243h27.243v-1.588c0-3.502,2.053-6.412,5.554-6.412h33.5   c3.501,0,5.945,2.91,5.945,6.412v1.588h28.734h1.266v9h-2.205H158.23V183.496z"></path><path d="M136.823,94.867c18.506,0,33.51-15.003,33.51-33.51c0-25.812,17.496-32.119,29.244-33.443   c0.036,5.721,4.684,10.347,10.412,10.347c5.751,0,10.412-4.662,10.412-10.414c0-5.75-4.661-10.412-10.412-10.412   c-2.27,0-4.369,0.729-6.08,1.962c-6.793-7.91-19.238-18.516-37.146-18.516c-55.03,0-62.334,44.924-63.303,57.333   c-0.082,0.879-0.129,1.768-0.142,2.665c-0.007,0.312-0.005,0.478-0.005,0.478C103.314,79.864,118.316,94.867,136.823,94.867z"></path><rect x="121.23" y="170.23" width="29" height="10"></rect></g></svg>