<svg xmlns="http://www.w3.org/2000/svg" xmlns:xlink="http://www.w3.org/1999/xlink" version="1.1" x="0px" y="0px" viewBox="0 0 1000 1000" style="enable-background:new 0 0 1000 1000;" xml:space="preserve"><g><path d="M478.3,746.5c8.1,2.7,24.4,6.3,38.6,10.2c4.2-6.1,6.8-14.4,6.8-23.6c0-5.2-0.8-10.1-2.3-14.5   c-15.2,7.7-35.5,17.9-44.4,22.7C477.3,743.1,477.8,744.8,478.3,746.5z"></path><path d="M519,761c-11-5.3-26.3-7.6-38.7-9.2c0.9,1.9,1.9,3.6,3,5.2c-4.3,6.1-7,14.6-7,24c0,2.6,0.2,5,0.6,7.4   c16-6.7,38-12.3,45.6-18C521.7,767.1,520.5,763.9,519,761z"></path><path d="M533.5,827l10.9-3c0,0-9.9-18-16-22c-1.6-1-4.6-2.4-8.2-3.6c2.1-5.1,3.4-11,3.4-17.3c0-1.4-0.1-2.7-0.2-4   c-15.8,4.7-30.9,12.7-43.9,21.1c1.8,4.3,4.2,8.1,7.1,10.9c-4.7,4.3-10.7,9.9-16,15c-10.3,10-19.6,23-19.6,23s11.3-6,15.3,0   s-14.1,23-15.6,36s5.7,31,5.7,31l9.9-12c0,0,2,19,13,29s12.6,12,18.8,29c6.2,17,4.2,27,4.2,27s31.1-35,31.1-45c-0.1-10,0-41,0-41   s8.3,1.7,10.5,7.3c-0.6-4.7-1.3-13.4,0.5-19.3c3-10,12-7,12-7s3-16-6-31S533.5,827,533.5,827z"></path><path d="M586.4,624c-1.5-14.6-15-54.4-15-54.4s-18-3-33.5-16.5S522.8,500,522.8,500H500h-22.8c0,0,0.4,39.6-15.1,53.1   s-33.5,16.5-33.5,16.5s-13.5,39.8-15,54.4s13.5,43.1,13.5,43.1l7.5-18c0,0,7.7,27,21.9,40.5c7.8,7.5,17.8,14.5,25.2,22.1   c-3.1,5.4-5,12.2-5.3,19.6c3.8-2.4,7.9-4.9,11.9-7.3c8.2-5.1,23.6-12.2,35.6-17.5c6.4-5.7,13.7-11.2,19.8-16.9   c14.1-13.5,21.9-40.5,21.9-40.5l7.5,18C572.9,667.1,587.9,638.6,586.4,624z"></path></g><g><path d="M392.6,113.4c65.6,23.5,98.9,98.5,103.3,108.9c4.4-10.4,37.7-85.4,103.3-108.9c14.6-5.2,25.6-8.3,33.8-9.9   C603.5,82.3,561.7,76,500,76c-63.1,0-105.3,6.5-134.8,29C372.5,106.7,381.4,109.5,392.6,113.4z M524.2,102   c7.2,0,13.1,5.9,13.1,13.1c0,7.2-5.9,13.1-13.1,13.1c-7.2,0-13.1-5.9-13.1-13.1C511.1,107.9,517,102,524.2,102z M512.1,145.1   l-15.7,19.5l-15.7-19.5H512.1z M469.2,101c7.2,0,13.1,5.9,13.1,13.1c0,7.2-5.9,13.1-13.1,13.1c-7.2,0-13.1-5.9-13.1-13.1   C456.1,106.9,462,101,469.2,101z"></path><path d="M749.7,201.5c0,0-30.7,51.1-44.3,56.2c-13.6,5.1-13.6,5.1-13.6,5.1s0.9-21.7-3.5-50c-30.5,8.4-61.8,13.8-61.8,13.8   s16.1-6,44.4-18.5c5.1-2.3,10.2-5.1,15-8.3c-1.2-5.9-2.6-11.9-4.3-18c-34.8,14.3-95.1,24.8-95.1,24.8s16.1-6,44.4-18.5   c16.5-7.3,32.1-20.6,42.3-30.5c-2.2-5.3-4.7-10.6-7.6-15.7c-5.3-9.7-11.3-18.1-18.1-25.3c-18.8,8-68.3,30.4-93.9,54.3   c-30,27.9-54.7,94.1-57.7,102.4l0,0.8c0,0-0.1-0.1-0.2-0.4c-0.1,0.3-0.2,0.4-0.2,0.4l0-0.8c-3-8.2-27.7-74.4-57.7-102.4   c-23.2-21.7-66.2-42.1-88-51.7c-5.8,6.6-11,14.1-15.7,22.7c-2.9,5.2-5.4,10.6-7.7,16c10.2,9.9,25.7,23,42,30.2   c28.3,12.5,44.4,18.5,44.4,18.5s-59.8-10.4-94.7-24.6c-1.7,6.1-3.2,12.2-4.3,18.1c4.7,3.1,9.6,5.8,14.6,8   c28.3,12.5,44.4,18.5,44.4,18.5s-31-5.4-61.3-13.7c-4.4,28.3-3.5,49.9-3.5,49.9s0,0-13.6-5.1c-13.6-5.1-44.3-56.2-44.3-56.2   s3.4,64.7,10.2,86.9c6.8,22.1,40.9,56.2,39.2,95.4c-1.7,39.2-10.2,49.4-10.2,49.4c-0.9,111.2,62.5,157.8,120,177.2l12.5-52.3   c0,0,22.6-6,33.3-14.9c10.7-8.9,10.2-45.3,10.2-45.3s21.4-6,30.3-6.6c8.9-0.6,38.5,7.8,38.5,7.8s-2.1,33.4,4.4,38.8   c6.6,5.4,24.5,16.1,32.2,17.9c6.9,1.6,21.5,44.1,24.5,52.9c56.1-20.4,116-67.4,115.1-175.5c0,0-8.5-10.2-10.2-49.4   c-1.7-39.2,32.4-73.2,39.2-95.4C746.3,266.2,749.7,201.5,749.7,201.5z M353.4,459.7c0,0-18.5-32.4-12.7-71.8   c5.8-39.4,12.7-49.8,12.7-49.8s33.6,85.7,41.7,97.3S376.5,466.7,353.4,459.7z M392.7,331.9c-17.4-1.2-12.7-33.6-20.8-42.2   S340.6,274,340.6,274s20.8,0,35.9,8.1c15.1,8.1,61.4,24.3,67.2,23.2c5.8-1.2,12.7-5.8,12.7-5.8C446,355.1,410.1,333.1,392.7,331.9z    M492.3,406h-26.6c0,0-8.1-6.9,0-11.6c8.1-4.6,13.9-0.9,17.4-10.3c3.5-9.4,9.3-17.5,9.3-17.5V406z M530.4,406h-26.6v-39.4   c0,0,5.8,8.1,9.3,17.5c3.5,9.4,9.3,5.6,17.4,10.3C538.5,399.1,530.4,406,530.4,406z M539.1,299.5c0,0,6.9,4.6,12.7,5.8   c5.8,1.2,52.1-15.1,67.2-23.2c15.1-8.1,35.9-8.1,35.9-8.1s-23.2,7-31.3,15.7s-3.5,41.1-20.8,42.2   C585.4,333.1,549.5,355.1,539.1,299.5z M645.6,459.7c-23.2,6.9-49.8-12.7-41.7-24.3s41.7-97.3,41.7-97.3s6.9,10.4,12.7,49.8   C664.1,427.3,645.6,459.7,645.6,459.7z"></path></g></svg>