<svg xmlns="http://www.w3.org/2000/svg" xmlns:xlink="http://www.w3.org/1999/xlink" version="1.1" x="0px" y="0px" viewBox="0 0 100 100" enable-background="new 0 0 100 100" xml:space="preserve"><path d="M50.995,67.088c-0.937,0-1.889,0.677-1.889,1.718c0,1.042,0.847,1.889,1.889,1.889c1.041,0,1.889-0.847,1.889-1.889  C52.884,67.765,51.933,67.088,50.995,67.088z M50.995,70.156c-0.754,0-1.368-0.614-1.368-1.368c0-0.754,0.53-1.502,1.368-1.502  c0.838,0,1.368,0.747,1.368,1.502C52.364,69.543,51.75,70.156,50.995,70.156z M56.5,34.278c-0.809,0-1.497-0.515-1.755-1.235  c0.148,0.104,0.327,0.166,0.521,0.166c0.499,0,0.904-0.405,0.904-0.904c0-0.499-0.405-0.904-0.904-0.904  c-0.137,0-0.266,0.031-0.382,0.086c0.322-0.559,0.925-0.935,1.616-0.935c1.029,0,1.863,0.834,1.863,1.863  C58.363,33.444,57.529,34.278,56.5,34.278z M45.503,32.305c0,0.5,0.405,0.904,0.904,0.904c0.194,0,0.374-0.062,0.521-0.166  c-0.258,0.72-0.946,1.235-1.755,1.235c-1.029,0-1.863-0.834-1.863-1.863c0-1.029,0.834-1.863,1.863-1.863  c0.691,0,1.294,0.376,1.616,0.935c-0.116-0.054-0.246-0.086-0.382-0.086C45.908,31.401,45.503,31.806,45.503,32.305z M67.722,37.92  c0.034,0.551,0.516,0.723,0.516,0.723c0.998,0.344,1.067-1.136,1.067-1.136c0.138-1.755-1.445-1.514-1.445-1.514  c0.069-1.342,1.583-1.067,1.583-1.067c1.583,0.241,1.032,2.925,1.032,2.925c-0.344,2.409-1.824,2.443-1.824,2.443  C66.518,40.019,67.722,37.92,67.722,37.92z M59.567,30.144c1.193,0.219,1.243,3.678,1.243,3.678  c0.021,1.673,1.271,1.377,1.271,1.377c1.419-0.297,2.754,0.953,2.754,0.953c0.148,0.318-0.021,0.275-0.021,0.275  c-1.695-1.292-2.817-0.614-2.817-0.614c-0.402,0.318-0.709,0.111-0.709,0.111c-1.548-0.826-1.101-2.443-1.101-2.443  C60.702,30.625,59.567,30.144,59.567,30.144z M33.952,37.92c0,0,1.204,2.099-0.929,2.374c0,0-1.48-0.035-1.824-2.443  c0,0-0.551-2.684,1.032-2.925c0,0,1.514-0.275,1.583,1.067c0,0-1.583-0.241-1.445,1.514c0,0,0.069,1.48,1.067,1.136  C33.436,38.643,33.918,38.471,33.952,37.92z M50.817,46.211c1.386,0,6.355-0.339,8.301-4.231c0.055-0.109,0.184-0.463,0.074-0.642  c-0.069-0.111-0.238-0.156-0.506-0.132c-0.077,0.008-0.136-0.036-0.16-0.102c-0.024-0.066,0-0.141,0.058-0.181  c0.014-0.009,0.337-0.228,0.778-0.228c0.334,0,0.824,0.13,1.261,0.749c0.016,0.025,0.274,0.445,0.158,0.887  c-0.068,0.256-0.243,0.462-0.521,0.612c-0.046,0.025-0.102,0.025-0.148,0c-0.046-0.025-0.076-0.072-0.08-0.125  c-0.02-0.282-0.107-0.539-0.165-0.565c0.001,0.001-0.108,0.014-0.335,0.422c-0.014,0.032-1.997,4.114-8.694,4.114  c-6.697,0-8.679-4.082-8.698-4.123c-0.22-0.395-0.333-0.412-0.334-0.412c-0.062,0.028-0.144,0.307-0.163,0.564  c-0.003,0.053-0.034,0.1-0.08,0.125c-0.047,0.025-0.102,0.024-0.148,0c-0.278-0.15-0.453-0.356-0.52-0.612  c-0.117-0.442,0.142-0.862,0.153-0.88c0.442-0.626,0.931-0.755,1.265-0.755c0.37,0,0.658,0.154,0.749,0.209  c0.061,0.021,0.104,0.079,0.104,0.147c0,0.086-0.069,0.155-0.155,0.155c-0.002,0-0.004,0-0.008,0c-0.004,0-0.009,0-0.014,0  c-0.266-0.024-0.437,0.021-0.506,0.132c-0.112,0.181,0.019,0.532,0.074,0.642C44.502,45.872,49.431,46.211,50.817,46.211z   M40.387,35.925c0,0-0.306,0.206-0.709-0.111c0,0-1.123-0.678-2.817,0.614c0,0-0.169,0.042-0.021-0.275c0,0,1.334-1.25,2.754-0.953  c0,0,1.25,0.296,1.271-1.377c0,0,0.05-3.459,1.243-3.678c0,0-1.136,0.482-0.619,3.338C41.488,33.481,41.935,35.099,40.387,35.925z   M35.414,43.057c0.256-0.01,0.619,0.091,0.911,0.549c0.067,0.088,1.666,2.172,3.714,3.293c0.054,0.042,0.531,0.422,0.558,0.911  c0.018,0.31-0.151,0.629-0.495,0.943c-0.269,0.22-6.609,5.392-9.159,6.501c-0.062,0.021-1.85,0.732-3.016,0.485  c-0.013-0.003-1.365-0.295-2.598-0.295c-1.097,0-1.576,0.183-2.037,0.678c-0.1,0.108-0.424,0.508-0.419,1.132  c0.005,0.5,0.217,1.008,0.632,1.514c-0.862,0.193-2.143,0.619-2.711,1.504c-0.308,0.48-0.369,1.022-0.183,1.61  c0.049,0.168,0.369,1.021,1.883,1.283c0.105,0.024,0.283,0.111,0.306,0.179c0.01,0.03-0.012,0.132-0.156,0.298  c-0.098,0.1-0.957,1.002-0.918,1.948c0.017,0.407,0.19,0.759,0.498,1.024c0.112,0.139,0.539,0.592,1.322,0.592  c0.553,0,1.153-0.231,1.764-0.673c0.095-0.048,0.286-0.12,0.42-0.12c0.045,0,0.067,0.008,0.071,0.012  c0.013,0.014,0.044,0.091,0.036,0.243c-0.055,0.209-0.309,1.283,0.142,1.969c0.201,0.307,0.502,0.49,0.887,0.543  c0.027,0.005,0.088,0.014,0.181,0.014c0.529,0,1.952-0.293,3.715-2.988c0.798-0.941,3.7-3.141,8.968-4.732  c0.003-0.001,0.324-0.086,0.691-0.086c0.278,0,0.648,0.05,0.833,0.286c0.17,0.218,0.191,0.589,0.073,1.078  c-0.178,0.399-1.758,3.999-2.303,7.233c-0.133,0.334-3.246,8.249-2.769,14.95c0,0.099-0.011,2.444-0.984,4.223  c-0.061,0.119-1.477,2.917-0.294,4.337c0.109,0.25,0.522,0.943,1.712,0.943c0.214,0,0.444-0.024,0.687-0.07  c0,0,1.324,0.681,2.8,0.13c0,0,1.132,0.761,2.98,0.138c0,0,1.638,0.625,2.937,0.046c0.265-0.038,1.2-0.294,2.053-1.968  c0.929-2.367,0.158-4.31,0.158-4.31c-0.419-0.642-0.941-3.093,0.074-7.781c0.077-0.106,0.339-0.415,0.791-0.466  c0.142,0.038,0.766,0.188,1.65,0.188c0.572,0,1.136-0.064,1.678-0.188c0.448,0.05,0.705,0.344,0.794,0.466  c1.014,4.687,0.493,7.138,0.057,7.807c0,0-0.595,2.555,0.163,4.265c0.864,1.694,1.799,1.95,2.035,1.981c0,0,1.327,0.532,2.967-0.039  c0,0,1.424,0.557,2.98-0.138c0,0,1.514,0.526,2.8-0.13c0,0,2.077,0.294,2.399-0.873c1.193-1.43-0.235-4.223-0.298-4.345  c-0.968-1.77-0.979-4.116-0.98-4.204c0.477-6.713-2.636-14.628-2.76-14.93c-0.55-3.243-2.133-6.862-2.303-7.239  c-0.127-0.513-0.106-0.885,0.064-1.103c0,0,0.224-0.387,1.52-0.202c5.271,1.592,8.174,3.792,8.961,4.717  c1.774,2.711,3.197,3.004,3.726,3.004c0,0,0.659,0.052,1.069-0.557c0.456-0.678,0.198-1.759,0.147-1.94  c-0.013-0.18,0.019-0.258,0.032-0.272c0,0,0.018-0.011,0.071-0.011c0.134,0,0.324,0.072,0.399,0.108  c0.632,0.455,1.233,0.686,1.785,0.686c0.783,0,1.21-0.453,1.303-0.572c0.327-0.285,0.5-0.636,0.517-1.044  c0.038-0.945-0.82-1.847-0.912-1.94c-0.151-0.175-0.172-0.277-0.163-0.306c0.023-0.071,0.212-0.158,0.298-0.177  c1.557-0.269,1.86-1.182,1.888-1.28c0.188-0.591,0.127-1.134-0.181-1.613c-0.569-0.884-1.849-1.31-2.711-1.504  c0.414-0.506,0.627-1.014,0.631-1.514c0.006-0.624-0.319-1.024-0.399-1.107c-0.287-0.473-0.959-0.703-2.056-0.703  c-1.233,0-2.584,0.294-2.601,0.296c-1.079,0.13-3.002-0.481-3.002-0.481c-2.561-1.113-8.901-6.285-9.163-6.5  c-0.35-0.319-0.519-0.638-0.502-0.949c0.028-0.488,0.504-0.87,0.538-0.898c2.087-1.143,3.669-3.219,3.752-3.331  c0.275-0.434,0.638-0.525,0.894-0.525c0,0,0.922,0.12,2.462-0.405c1.116-0.323,1.987-1.236,2.521-2.641  c0.391-1.028,0.466-1.961,0.469-1.989c0.267-1.836-0.021-3.258-0.857-4.225c-0.753-0.871-1.745-1.127-2.293-1.203  c1.472-1.152,1.343-3.624,1.345-5.331c0.003-2.913-0.026-5.173,2.299-7.272c3.717-3.358,9.719-3.181,10.246-9.272  c0.024-0.276-0.919-0.378-0.942-0.114c-0.503,5.823-6.433,6.132-10.2,9.176c-1.887,1.525-2.339,3.477-2.355,5.781  c-0.014,2.003,0.568,5.815-1.552,6.987c-0.59-0.132-0.755-0.562-0.767-0.596c-2.618-5.666-6.958-7.167-10.397-7.349  c5.08-1.829,5.358-7.974,7.174-12.395c0.114-0.278-0.816-0.346-0.915-0.105c-1.777,4.326-1.979,10.959-7.392,12.39  c-0.121,0.032-0.173,0.068-0.196,0.104c-2.053,0.079-3.628,0.55-4.061,0.694c0.647-2.96-0.119-5.469-2.304-7.6  c-3.01-2.935-1.255-8.867-0.353-12.411c0.067-0.265-0.851-0.505-0.917-0.244c-0.879,3.452-1.937,7.588-0.702,11.075  c0.538,1.521,2.237,2.446,3.005,3.866c0.798,1.476,0.725,3.437,0.365,5.063c-0.853-0.212-2.18-0.46-3.747-0.46  c-0.567,0-1.169,0.038-1.788,0.118c0.402-3.096-1.497-4.492-3.556-6.478c-3.007-2.902-4.31-6.873-3.381-10.957  c0.05-0.219-0.882-0.298-0.949-0.001c-0.77,3.386-0.049,6.494,1.898,9.332c1.976,2.882,5.618,4.148,5.033,8.199  c-0.003,0.022,0.01,0.041,0.022,0.06c-3.009,0.622-6.299,2.471-8.442,7.111c-0.009,0.025-0.231,0.624-1.123,0.624  c-0.114,0-0.236-0.01-0.385-0.03c-0.017,0-0.129,0.001-0.305,0.022c-1.679-1.819-3.303-3.381-3.41-6.055  c-0.122-3.06,1.07-5.835,0.631-8.97c-0.637-4.549-4.975-6.908-8.526-9.028c-0.215-0.128-1.107,0.017-0.82,0.189  c4.658,2.782,8.491,5.374,8.607,11.31c0.052,2.66-1.13,5.184-0.711,7.854c0.31,1.979,2.079,3.488,3.397,4.892  c-0.505,0.169-1.089,0.467-1.569,1.023c-0.836,0.967-1.124,2.388-0.858,4.215c0.008,0.1,0.091,1.002,0.469,1.999  C30.431,40.011,31.181,43.225,35.414,43.057z M50.723,42.041c-1.312,0-1.766-1.093-1.766-1.093c-0.443-0.95-0.905-1.412-1.411-1.412  c-0.438,0-0.776,0.35-1.023,0.669c-0.191,0.072-0.472,0.151-0.786,0.151c-0.55,0-1.027-0.245-1.411-0.718  c-0.022-0.033-0.545-0.807-0.387-1.494c0.073-0.313,0.29-0.572,0.647-0.769c0.005-0.003,0.032-0.02,0.036-0.023  c0.044-0.031,1.081-0.753,2.777-0.76c0.138,0.02,0.721,0.056,1.76-0.334c0,0,1.292-0.607,3.365,0.004  c0.777,0.229,1.258,0.344,1.544,0.344c0.102,0,0.17-0.008,0.182-0.012c1.708,0.005,2.758,0.728,2.802,0.759  c0.005,0.003,0.031,0.02,0.036,0.023c0.357,0.196,0.574,0.454,0.647,0.767c0.158,0.677-0.365,1.462-0.379,1.485  c-0.39,0.483-0.867,0.728-1.418,0.728c-0.312,0-0.594-0.08-0.787-0.152c-0.247-0.318-0.584-0.668-1.023-0.668  c-0.506,0-0.967,0.462-1.392,1.383C52.254,42.104,50.723,42.041,50.723,42.041z M55.736,93.977 M59.059,35.131  c-0.398,0-0.815,0.198-0.837,0.209c-0.722,0.377-1.517,0.26-1.52,0.26c-0.185-0.031-0.36-0.047-0.52-0.047  c-0.568,0-0.884,0.193-1.057,0.381c-0.152-0.02-0.308-0.035-0.466-0.045c0.015-0.051,0.041-0.114,0.084-0.188  c0.014-0.018,0.309-0.37,0.48-0.661c0.428,0.227,0.905,0.346,1.391,0.346c1.643,0,2.98-1.337,2.98-2.98  c0-1.643-1.337-2.98-2.98-2.98s-2.98,1.336-2.98,2.98c0,0.846,0.36,1.649,0.99,2.215c-0.006,0.059-0.019,0.114-0.043,0.172  c-0.055,0.18-0.257,0.687-0.531,0.869c-0.006,0.005-0.144,0.096-0.26,0.202c-0.11-0.015-0.228-0.039-0.355-0.07  c0.136-0.267,0.209-0.666,0.016-1.228c-0.008-0.025-0.84-2.503,0.131-4.201c0.44-0.769,1.19-1.268,2.265-1.492  c0.019-0.009,0.186-0.091,0.212-0.261c0.012-0.075-0.002-0.188-0.125-0.309c-0.046-0.086-0.247-0.486-0.103-0.739  c0.122-0.215,0.474-0.261,0.748-0.261c0.191,0,0.416,0.021,0.653,0.06c0.021,0.006,0.213,0.056,0.363,0.056  c0.127,0,0.213-0.038,0.258-0.115c0.023-0.039,0.052-0.121-0.009-0.23c-0.019-0.034-0.049-0.059-0.085-0.071  c-0.038-0.013-0.929-0.311-2.02-0.311c-1.617,0-2.793,0.658-3.408,1.922c-0.009,0.025-0.867,2.58-0.523,5.54  c0.002,0.014,0.006,0.029,0.012,0.043c0.002,0.005,0.208,0.499,0.125,1.168c-0.207-0.038-0.419-0.067-0.635-0.085  c-0.25-3.109-0.319-8.473,0.953-9.622c0.747-0.165,1.898-0.356,3.215-0.356c3.324,0,7.845,1.205,10.496,6.934  c0.019,0.05,0.088,0.222,0.247,0.416c0.053,0.299,0.107,0.71,0.161,1.225c0.009,0.076,0.037,0.306,0.216,0.306  c0.167,0,0.214-0.188,0.265-0.469c0-0.004,0.03-0.331,0.323-0.47c0.31,0.076,0.692,0.085,1.002,0.035  c0.133,0.004,1.32,0.061,2.123,0.99c0.695,0.804,0.926,2.034,0.686,3.682c0,0-0.472,4.273-4.059,4.422  c-0.248-0.29-0.184-0.974-0.135-1.224c0.544-2.664-0.115-4.113-0.147-4.182c-0.02-0.036-0.08-0.145-0.195-0.145  c-0.031,0-0.183,0.012-0.192,0.267c0.339,3.186-0.291,4.742-0.716,5.402c-0.316,0.142-0.581,0.376-0.779,0.687  c-0.07,0.09-0.448,0.569-1.002,1.135c-3.961,3.082-10.101,4.729-10.162,4.745c-0.08,0.021-0.13,0.102-0.112,0.184  c0.018,0.082,0.099,0.133,0.178,0.12c1.4-0.243,2.732-0.57,3.929-0.967c0.272-0.033,0.548-0.05,0.819-0.05  c0.843,0,1.6,0.158,2.25,0.469c0.113,0.166,0.257,0.328,0.428,0.484c0.004,0.003,0.008,0.007,0.013,0.01v0  c0.271,0.222,6.66,5.451,9.374,6.624c0,0,1.585,0.639,3.415,0.51c0.013-0.002,1.308-0.253,2.447-0.278c0,0,1.404-0.008,1.733,1.089  c0,0,0.349,1.198-2.618,2.297c-0.39,0.091-0.605,0.214-0.638,0.366c-0.009,0.04-0.018,0.144,0.105,0.238  c0,0,0.298,0.297,1.889-0.341c0.005-0.003,0.502-0.277,1.177-0.345c0.671,0.15,1.835,0.501,2.279,1.193  c0.19,0.295,0.222,0.625,0.095,1.023c-0.003,0.009-0.305,0.867-2.181,0.926c0,0-0.239-0.03-0.474,0.077c0,0-0.107,0.127,0.014,0.269  c1.668,1.944,1.515,2.536,1.519,2.535c-0.001,0.038-0.051,0.995-1.065,0.995c-0.009,0-0.962-0.063-3.138-1.308  c-0.272-0.122-0.448,0.061-0.448,0.061c-0.05,0.075-0.051,0.17,0.007,0.303c1.034,1.711,0.489,2.695,0.485,2.702  c-0.001,0.002-0.157,0.237-0.521,0.237c-0.436,0-1.415-0.351-3.087-2.712c-0.095-0.112-2.38-2.771-8.749-4.801  c-1.58-0.807-5.52-2.737-7.973-3.224c0,0-0.232-0.035-0.385,0.107c0,0-0.223,0.338,0.404,0.644c0.032,0.014,3.183,1.451,4.788,3.982  c0.002,0.108,0.018,0.362,0.115,0.55c0.017,0.038,1.721,3.838,2.292,7.203c0.032,0.079,3.205,7.965,2.725,14.693  c0,0.106,0,2.618,1.063,4.562c0,0,1.178,2.312,0.323,3.614c-0.345,0.747-1.515,0.583-1.515,0.583  c-0.001-0.858-0.189-1.485-0.562-1.865c-0.337-0.344-0.721-0.371-0.83-0.371c-0.005,0-0.038,0.001-0.042,0.001  c-0.069,0.006-0.127,0.057-0.139,0.127c-0.013,0.069,0.022,0.137,0.084,0.168c0.949,0.462,0.913,1.49,0.83,1.995  c-1.149,0.432-2.182,0.072-2.182,0.072c0.015-0.577-0.111-1.702-1.212-2.292c-0.07-0.038-0.157-0.016-0.202,0.05  c-0.044,0.066-0.032,0.155,0.03,0.206c0.042,0.035,1.008,0.854,0.671,2.097c-1.239,0.37-2.123,0.096-2.123,0.096  c-0.13-1.066-0.796-1.989-0.825-2.029c-0.045-0.063-0.13-0.082-0.198-0.046c-0.068,0.036-0.1,0.117-0.073,0.19  c0.315,0.879,0.386,1.559,0.399,1.895c-1.593,0.514-2.469-0.002-2.469-0.002c-1.14-0.323-1.614-1.678-1.614-1.678  c-0.007-0.01-0.741-1.058-0.109-3.557c0.241-0.422,1.211-2.573,0.013-8.179c4.317-1.552,5.847-5.371,5.862-5.409  c0.03-0.077-0.006-0.164-0.081-0.198c-0.076-0.036-0.164-0.004-0.202,0.07c-2.244,4.341-8.698,4.605-8.756,4.607  c-4.615-0.074-8.741-4.594-8.782-4.639c-0.051-0.056-0.132-0.069-0.197-0.028c-0.064,0.039-0.09,0.119-0.063,0.188  c0.015,0.039,1.544,3.857,5.861,5.41c-1.199,5.61-0.228,7.757,0.013,8.179c0.632,2.498-0.101,3.546-0.115,3.566  c-0.439,1.373-1.652,1.683-1.652,1.683c-0.774,0.435-2.426-0.012-2.426-0.012c0.013-0.336,0.084-1.017,0.399-1.895  c0.026-0.073-0.005-0.153-0.073-0.19c-0.069-0.037-0.153-0.017-0.198,0.046c-0.029,0.04-0.695,0.963-0.825,2.029  c-1.496,0.335-2.123-0.096-2.123-0.096c-0.336-1.242,0.629-2.062,0.671-2.097c0.062-0.051,0.075-0.14,0.03-0.206  c-0.045-0.066-0.132-0.088-0.202-0.05c-1.1,0.59-1.227,1.715-1.212,2.292c-1.332,0.348-2.182-0.072-2.182-0.072  c-0.083-0.505-0.119-1.532,0.83-1.995c0.063-0.031,0.097-0.099,0.084-0.168c-0.013-0.069-0.07-0.12-0.14-0.127  c-0.004,0-0.038-0.001-0.042-0.001c-0.109,0-0.493,0.027-0.83,0.371c-0.373,0.38-0.562,1.007-0.563,1.865  c-1.433,0.43-1.546-0.62-1.546-0.62c-0.912-1.013,0.3-3.47,0.35-3.57c1.068-1.951,1.069-4.463,1.067-4.593  c-0.479-6.704,2.694-14.59,2.735-14.702c0.562-3.334,2.265-7.133,2.282-7.17c0.074-0.159,0.103-0.438,0.112-0.546  c1.602-2.532,4.76-3.973,4.784-3.985c0.533-0.336,0.41-0.647,0.41-0.647c-0.098-0.15-0.382-0.108-0.382-0.108  c-2.459,0.488-6.396,2.417-7.952,3.214c-6.405,2.044-8.679,4.7-8.78,4.821c-1.664,2.351-2.644,2.702-3.08,2.702  c-0.362,0-0.515-0.228-0.519-0.234c-0.006-0.01-0.551-0.994,0.494-2.725c0.047-0.113,0.045-0.208-0.004-0.283  c-0.032-0.048-0.096-0.105-0.222-0.105c-0.101,0-0.205,0.037-0.247,0.055c-2.152,1.234-3.058,1.296-3.063,1.297  c-1.085,0.208-1.097-0.923-1.097-0.923c-0.059-0.778,1.5-2.606,1.5-2.606s0.199-0.207,0.014-0.269  c-0.211-0.07-0.474-0.077-0.474-0.077c-1.876-0.059-2.179-0.918-2.186-0.94c-0.124-0.39-0.092-0.71,0.1-1.01  c0.443-0.69,1.607-1.043,2.279-1.193c0.675,0.069,1.172,0.342,1.19,0.352c0.611,0.273,1.113,0.412,1.492,0.412  c0.245,0,0.356-0.06,0.396-0.086c0.111-0.087,0.102-0.19,0.094-0.231c-0.033-0.152-0.248-0.275-0.627-0.363  c0,0-3.094-0.863-2.672-2.425c0,0,0.07-0.897,1.776-0.964c1.13,0.025,3.039,0.339,3.047,0.34c1.176,0,2.748-0.549,2.839-0.582  c2.663-1.153,9.079-6.392,9.364-6.627c0.17-0.154,0.313-0.316,0.427-0.482c0.65-0.311,1.407-0.469,2.25-0.469  c0.271,0,0.546,0.017,0.789,0.043c1.226,0.403,2.557,0.73,3.958,0.974c0.01,0.001,0.02,0,0.031,0.002  c0.106-0.002,0.159-0.068,0.159-0.155c0-0.081-0.061-0.146-0.139-0.154c-0.356-0.096-6.283-1.737-10.129-4.727  c-0.571-0.581-0.949-1.059-1.011-1.138c-0.206-0.322-0.471-0.557-0.787-0.698c-0.425-0.66-1.055-2.216-0.715-5.425  c-0.01-0.232-0.162-0.244-0.193-0.244c-0.115,0-0.175,0.109-0.199,0.153c-0.028,0.06-0.688,1.509-0.144,4.172  c0.049,0.251,0.115,0.935-0.135,1.225c-0.865-0.027-1.48-0.367-1.51-0.384c-0.01-0.006-0.045-0.017-0.057-0.02  c-2.196-0.617-2.49-3.984-2.495-4.042c-0.238-1.624-0.006-2.855,0.688-3.658c0.803-0.929,1.99-0.986,2.097-0.992  c0.37,0.054,0.718,0.043,1.029-0.033c0.289,0.137,0.322,0.457,0.325,0.486c0.048,0.266,0.095,0.454,0.263,0.454  c0.178,0,0.207-0.23,0.216-0.309c0.054-0.512,0.108-0.923,0.161-1.223c0.158-0.192,0.228-0.364,0.242-0.404  c2.656-5.74,7.176-6.945,10.501-6.945c1.316,0,2.469,0.191,3.216,0.356c1.271,1.149,1.202,6.513,0.952,9.622  c-0.215,0.018-0.428,0.046-0.634,0.085c-0.082-0.665,0.123-1.163,0.125-1.169c0.006-0.013,0.009-0.028,0.011-0.042  c0.344-2.96-0.515-5.514-0.531-5.557c-0.608-1.246-1.783-1.904-3.4-1.904c-1.091,0-1.982,0.298-2.02,0.311  c-0.036,0.012-0.067,0.038-0.085,0.071c-0.061,0.109-0.032,0.191-0.009,0.23c0.044,0.076,0.131,0.115,0.258,0.115  c0.15,0,0.341-0.05,0.348-0.053c0.252-0.042,0.476-0.063,0.668-0.063c0.274,0,0.626,0.045,0.748,0.26  c0.13,0.228-0.022,0.594-0.103,0.739c-0.123,0.121-0.137,0.235-0.125,0.31c0.026,0.171,0.193,0.253,0.246,0.273  c1.04,0.213,1.791,0.711,2.231,1.48c0.969,1.695,0.139,4.176,0.131,4.201c-0.193,0.563-0.121,0.961,0.015,1.228  c-0.127,0.031-0.246,0.054-0.356,0.069c-0.116-0.105-0.253-0.196-0.259-0.201c-0.274-0.182-0.476-0.689-0.536-0.884  c-0.02-0.047-0.032-0.1-0.038-0.157c0.63-0.566,0.99-1.37,0.99-2.216c0-1.643-1.337-2.98-2.98-2.98c-1.643,0-2.98,1.336-2.98,2.98  c0,1.643,1.336,2.98,2.98,2.98c0.486,0,0.963-0.119,1.391-0.345c0.171,0.29,0.463,0.64,0.466,0.641  c0.051,0.085,0.081,0.153,0.097,0.207c-0.158,0.01-0.314,0.025-0.465,0.045c-0.173-0.188-0.488-0.381-1.057-0.381  c-0.16,0-0.335,0.016-0.519,0.046c-0.003,0.002-0.796,0.118-1.525-0.262c-0.018-0.008-0.437-0.248-0.833-0.206  c-0.484,0.051-0.547,0.216-0.547,0.216c-0.009,0.022-0.223,0.537,0.011,0.907c0.133,0.211,0.372,0.325,0.729,0.341  c0.003,0,0.135-0.01,0.339-0.01c0.265,0,0.719,0.018,1.153,0.119c-0.035,0.022-0.059,0.038-0.071,0.047  c-0.537,0.299-0.869,0.713-0.989,1.231c-0.233,1.009,0.471,2.029,0.515,2.09c0.534,0.665,1.202,1.002,1.983,1.002  c0.827,0,1.455-0.39,1.496-0.416c0.101-0.07,0.197-0.105,0.288-0.105c0.312,0,0.574,0.406,0.576,0.409  c0.871,1.441,2.163,1.594,2.658,1.594s1.952-0.154,2.822-1.592c0.072-0.114,0.316-0.411,0.577-0.411c0.09,0,0.187,0.035,0.303,0.115  c0.026,0.016,0.654,0.406,1.481,0.406c0.781,0,1.448-0.337,1.997-1.021c0.03-0.043,0.734-1.063,0.501-2.071  c-0.12-0.518-0.452-0.932-0.975-1.222c-0.014-0.01-0.042-0.029-0.084-0.056c0.434-0.101,0.888-0.119,1.153-0.119  c0.204,0,0.335,0.01,0.357,0.011c0.338-0.016,0.577-0.13,0.71-0.341c0.234-0.371,0.025-0.888,0.011-0.907  C59.42,35.091,59.059,35.131,59.059,35.131z M45.059,34.667c-1.246,0-2.261-1.014-2.261-2.261c0-1.246,1.014-2.261,2.261-2.261  c1.247,0,2.261,1.014,2.261,2.261C47.32,33.652,46.306,34.667,45.059,34.667z M54.354,32.406c0-1.246,1.014-2.261,2.261-2.261  c1.247,0,2.261,1.014,2.261,2.261c0,1.246-1.014,2.261-2.261,2.261C55.368,34.667,54.354,33.652,54.354,32.406z M64.112,21.974  c0.914-3.589,4.829-4.761,6.297-7.956c0.837-1.821,0.447-3.937,2.238-5.262c1.459-1.08,3.113-1.72,4.777-2.418  c0.217-0.091,1.137,0.033,0.688,0.222c-1.693,0.71-4.514,1.45-5.456,3.17c-0.834,1.523-0.615,3.384-1.612,4.819  c-1.806,2.601-5.165,4.14-5.985,7.36C64.981,22.213,64.062,22.169,64.112,21.974z"></path></svg>