<?xml version="1.0" encoding="utf-8"?>
<!-- Generator: Adobe Illustrator 18.0.0, SVG Export Plug-In . SVG Version: 6.00 Build 0)  -->
<!DOCTYPE svg PUBLIC "-//W3C//DTD SVG 1.1//EN" "http://www.w3.org/Graphics/SVG/1.1/DTD/svg11.dtd">
<svg version="1.1" xmlns="http://www.w3.org/2000/svg" xmlns:xlink="http://www.w3.org/1999/xlink" x="0px" y="0px"
	 viewBox="0 0 455.8 926.8" enable-background="new 0 0 455.8 926.8" xml:space="preserve">
<g id="Layer_3">
</g>
<g id="Layer_5">
	<g>
		<g>
			<path fill="#231F20" d="M261,858.1c-3.2-5.4-5.9-10.9-8.3-16.5c-6.7-13.6-11.6-28.5-13.9-43.7c-1.6-5.3-3.4-10.6-5.4-15.8
				c-4.4-11.4-16.7-36.5-5.4-45c8.7-6.5,18.9,11.7,21.8,18.7c-2.5-15.6-9-30.4-12.1-45c-6-28.2-4.9-59.8-4.4-89.9
				c0.5-23.8-9-51.8-0.5-72.8c1.7-4.2,7.4-9.3,12-14.6c0-0.5,0-1,0.1-1.6c2.1-2.2,4-4.4,5.2-6.6c1.3-3.3,1.3-6.7-1-10.1
				c-4.2,8.8-9.3,11.9-18.4,11.5c-10-0.4-16.1-5.3-14.6-8.6c-22.9,2.3-45.8,1.2-67-8.9c-9-4.3,6.3,8.7,14,12.7
				c10.7,5.5,6.2,24.9,5.2,35c-1.2,13.1,5.9,18,11,17.7c-6.5-10.2-4.3-24.1,1.7-24.4c16-1,18,29.5,17.9,41.4
				c-0.3,27.5-6.2,55.4-3.6,83.4c0.6-2.9,2.2-7.5,4.4-7.1c0,0.1,0,0.1,0,0.2c1.7,0,3.7,2.5,5.6,10.2c5.5,21.3,4.4,44.6,6.1,66.8
				c3.9,52.1,11.2,105.4,37.6,152.5c-3.8-16.1-10.2-31.9-7-46.6C243.5,844.3,252.5,857.5,261,858.1z"/>
			<path fill="#231F20" d="M336.9,470.3c8.9-14.6,24.8-25.6,37.1-37.2c15.8-15,29-32.1,40.1-51.4c9.9-17.1,20.5-33.9,27.8-51.8
				c13.2-32.4,16.1-66.1,12.6-101.8c-4.6-30.8-7.3-64-24.1-91.1c-6.2-9.1-16.5-13.8-20.9-16c0.2-5.8,0.7-11.5,1.2-17.3
				c-0.8,4.9-1.5,9.8-1.7,14.6c-1.7-0.5-11.4-1.1-18.9-0.5c-9.9,0.8-19.5,4.2-29.2,7c0.1,0.2,0.1,0.3,0.2,0.5
				c-3.1,0.8-6.3,1.5-9.7,2c-0.2,0-0.4,0-0.7-0.1c-1.3,0.2-2.5,0.5-3.8,0.6c-8.6,1.2-22.7-0.7-22.6-12.3c0.2-20.2-1.4-40.1-4.7-60.1
				c-0.9-5.3-1.2-15.4,1.2-17.1c2.4-1.7,5.6,10.5,13,7.7c-6.5-11-3-23.2,3.6-33.1c9-13.5,28.3-9.6,40.6-4.1
				c15.7,7,28.4,21.3,34.2,37.2c0.4,0.9,0.7,1.8,0.9,2.7c2.4,7.6,2.8,15.4,2.3,23.3c2.2-12.2,2.4-25.2-4.8-35.9
				c-13.5-18.2-32.9-43.4-59-34.2c-18.8,6.5-40.3,29.4-50.8,31.2c-0.5,0.1-1,0.1-1.6,0.1c1.4,1.4,2.7,3,3.9,4.8
				c9.6,14.1,15,30.9,15.8,48c0.3,6.6,0.7,13.1,0.9,19.8c0,0.4,0,0.8,0,1.1c0,1.1,0,2.1,0,3.2c0,0.7,0,1.4,0,2.1c0,0.9,0,1.8,0,2.7
				c0,0.9,0,1.7,0,2.6c0,0.8-0.1,1.5-0.1,2.3c0,1-0.1,2-0.1,3c0,0.7-0.1,1.4-0.2,2.1c-0.1,1-0.1,2-0.2,3c0,0,0,0,0,0
				c0,0.1,0,0.2,0,0.2c-16.8-1.8-30.5-0.9-46.1,4.8c-7.1,2.8-14,5.5-19.2,6.6c-0.7-0.1-1.3-0.3-1.9-0.4c-4.4,0.7-8,0.5-9.1-1.6
				c-2.5-4.5-2.6-19.1-7.1-27.6c-3.6-6.6-10-22.5-4.5-23.6c8-2,3,12.2,10.6,11.9c-2.7-4.4-0.2-7.5,2.2-8.5
				c4.5-1.9,13.6,1.4,19.4,1.3c11.7-0.1,24.4-0.6,35.6-4.9c0-0.1,0.1-0.2,0.2-0.2c1-0.3,1.9-0.6,2.8-1c2.5-1.1,4.9-2.5,7.2-4.1
				c-3.7,1.3-8.5,2.2-13.3,2.7c-3,0.4-6,0.5-9,0.6c0,0-0.1,0-0.1,0c0,0,0,0,0,0c-2.1,0-4.2,0-6.3-0.1c-17.2-0.9-41.1-8.1-44.5-27.8
				c-2-11.4,3.1-23.7,12.9-29.9c4.4-2.8,9.4-4.4,14.6-5c-5.9-1.5-11.8-2-17.2-0.7c-14.2,5-29,10.4-39.5,21.7
				c-6,6.8-3.9,19.1-8.9,17.5c-9.1-4.1-17.6-8.3-27.9-6.1c-13.5,2.8-27.6,6.4-38.2,15.8c-6.9,7.7-10.8,11.9-15.5,14.6
				c-8.5,4.8-11.4,2.6-20.6,2.9c-21.5,2.1-40.7,14.5-56.8,28.2c-17.1,14.3-21.7,37.4-26.2,58.1C9,182.2,1,187.8,0,198
				c2,13.1,5.4,25.3,9,38c2.4,32,4.5,64.1,5.1,96.1c0.8,41.4,7.3,87.5,24.3,125.6c4.7,10.5,13.6,19.7,16.7,30.4
				c6.2,21.6,5.7,45.7,5.2,68.6c-1.2,54.5-1.2,109.4-2.3,164c-1.6,79.6-4.8,159.3,4.3,238.7c95.8-3.7,191.7-5.4,287.5-9.2
				c0.2,0,0.4,0,0.6,0c-68.7,2.1-137.4,3.2-206.1,4.7c-4.7-72.2-7.7-144.5-24.2-215.2c-9.8,13.8-12-12.5-11.7-17.4
				c1.3-35.9,2.6-71.6,1-107.5c-0.5-10.7-0.8-21.7-3.1-32.2c-4.4-14.1,11.8-21.6,21.9-12.8c0.5-11.2-10.2-14.3-14.1-22.4
				c3.7-2,21.5-0.7,24.1-10.9c-9.6,1.5-23.6-1.9-24.9-13.4c9.1,2,22.5,4.1,29.4-3.9c-14.2,0.6-30.8-2.4-40.8-13.4
				c-0.9-2.9,4.3-4.9,12.9-3.5c14.8,1.3,33.8,2.2,45.7-8.4c-18.6,3-34.7,3.4-53.3,0.2c33.6-13.2-10.4-84.4-23.8-100.1
				c-11.2-13.9-23-30.1-21.1-48.9c3.3-18,6-36.3,5.5-54.6c-2.3-12.7-12-21.7-14.7-34.2c14.9-7.9,34.3-1.2,48.2,5.7
				c23.3,11.4,49.9,10,73.4,21.5c18.8,15.6,19.1,48.3,10.8,69.4c-6.1,17.9-11.3,43.1,0.5,59.8c0.1,0.1,0.1,0.1,0.2,0.2
				c0.1,0.1,0.1,0.2,0.2,0.3c1.6,2.2,3.5,4.2,5.8,6.1c-0.2-0.5-0.4-1.1-0.6-1.7c0,0,0,0,0,0c-4.5-13.6-6.7-31.1,4.5-42
				c2.3-1.8,4-1.8,5,2.6c6,26.2,21,51.7,45.5,64.1c8.8,4.5,21,9.9,31,6.2c-9.8-4.1-20.1-12.9-20.1-24.4c1.1-9.8,9.5-12.7,13.2-3.5
				c4.9,10.5,17.6,18.5,28.6,11.6c-27.4-10-30.8-55.3-18.6-77.5c8.2-13.1,15.6-25.8,21.1-40.3c2.4-11,14.2-13.2,19.6-4
				c8.8,12.8,27.7,17.7,41.9,11.8c-11.8-0.6-38.2-9.5-31-26.1c11.3-6.9,23.8,0.4,31.8,8.8c10.2,9.3,16.3,15.8,18.3,18.2
				c0.2-5.2-0.7-9.6,4.8-8.4c7.1,1.6,17.8,4.2,22.3-3.5c-12.2,0.4-28.3-4.9-30.4-18.8c-0.7-13.3,13.2-9.7,20.8-14.5
				c-14.3-8.6-0.7-25.2,8.8-30.5c5.3-3,10.2-9.1,9.9-15.4c-3.7,6-12.5,8.9-13.9,4.7c-1.4-4.2,5.9-5.8,3.4-12.4
				c-5,3.6-7.1,3.7-9.3,1.7c6.6-7.6,9.2-17.8,8.8-27.7c-6.8,13.3-17.8,24.6-33.2,26.9c-29.6,3.9-62.9-11.8-83.1-32.8
				c-10.5-11.9-16.8-27.2-17.8-43c-0.2-4.6,1.4-10.4,4.9-13.4c-0.7,3.7-0.8,6.6,1.4,17.5c2.5,12,8.7,23.6,19.6,29.9
				c14.3,4.6,30,1.1,42.5-6.6c10.3-9.1,4.5-24.3-2.1-33.6c-6-8.5-9-9.3-14.8-11c23.5-0.9,46.2-3.5,69.1-8.8c10.8-2.9,21,0.8,29,7.5
				c0.1,0.1,0.2,0.1,0.4,0.2c0.8,0.7,1.6,1.5,2.3,2.3c2.9,2.9,5.4,6.1,7.5,9.6c18.8,36.5,19.8,79.7,21.9,119.8
				c-0.1,9-1,17.7-2.7,26.2c-5.8,32.9-20.3,63.6-38.9,91.8c-12,18.9-26.7,36.4-42.3,52c-12.4,12.4-33.5,21.9-38.8,40.1
				c-4.8,16.6-9,32.9-11.8,50c-4.1,61,9.5,119.8,22.4,179c17.5,82.6,48.5,161.3,71,242.5c0.8-0.1,1.5-0.2,2.3-0.2
				c-19.6-74.1-44.2-146.6-64-220.6c-10.1-36.5-17.4-73.8-24-110.9c-6.4-36-9.6-72.2-2.8-108.1C327.9,492.7,330.8,480.3,336.9,470.3
				z M100.2,220.8c-5.7-1-7.8-10.3-4-13.2c6.7-5.2,9,3.8,14.3-1c-4.3-1-7.9-5.7-15.6-19.6c-3.6-6.4-5.3-13.1-7.5-21.9
				c-2.3-9-3.4-18.1,1.2-24.8c6.7-9.7,19.9-14.9,23.3-27.4c-0.4,0.5-0.7,1-1.1,1.6c0,0,0-0.1,0-0.1c-6.6,8.2-16.8,13.4-27,15.2
				c-4.3,0.8-5.9-7.5-3.1-13.6c4.1-9,14.7-14.2,23.8-17.1c-0.6-0.2-1.1-0.3-1.7-0.4c-0.1,0-0.1,0-0.2,0c-0.6-0.1-1.2-0.2-1.9-0.2
				c-5.1-0.4-11.3,0.7-17.4,3.9c3.6-6.3,14.7-10.7,22.4-11.1c8.9-0.5,14.7,0.2,20.1,12c6.1,13.2,9.5,27.9,13.5,41.6
				c3.8,13.3,12.6,26.5,14,39.9c0.5,4.2-1.2,7.7-3.9,10.8c-0.1,0.2-0.2,0.4-0.3,0.6c-1.7,1.7-3.7,3.3-5.9,4.7
				c-5.4,3.6-11.7,6.5-16,9.1C118.8,214.7,109.4,222.5,100.2,220.8z M145.8,111.2c3.2,11.8,6.4,23.8,9.7,35.5c3.1,11,6.7,22,10.2,33
				C153.8,157.8,148.6,135.9,145.8,111.2z M148.5,247.7c-11.9,3.3-25.9,4.5-36.6-2.9c10.7,4.1,23.3,4.4,33.8,0
				c4.4-1.9,1.8-6.6-2.3-7.4c3.8-2,15.3,1.6,25.7-3.7C168.4,238.2,156.3,245.6,148.5,247.7z M164.2,143.2
				c-2.9-14.5-5.3-33.8,4.4-45.6c8.3-10.1,24.5-12.9,37.9-11.2c0,0,0-0.1,0-0.1c1.3,0.2,2.5,0.4,3.7,0.7c-0.2-0.1-0.4-0.3-0.6-0.4
				c-0.1,0-0.1-0.1-0.2-0.1c-0.2-0.1-0.4-0.2-0.7-0.4c-0.1-0.1-0.2-0.1-0.3-0.2c-0.2-0.1-0.4-0.2-0.6-0.3c-0.2-0.1-0.4-0.2-0.6-0.3
				c-0.1,0-0.2-0.1-0.4-0.1c-0.3-0.1-0.7-0.3-1.1-0.4c-5-1.7-12.4-2.8-19.2-1.9c-11.8,1.5-21.9,8.4-25.2,8.2
				c-3.3-0.2-4.1-3.8,0.2-7.2c6.9-5.5,15.5-9.2,24.3-10.8c0,0,0.1,0,0.1,0c1.9-0.3,3.8-0.6,5.8-0.7c-12.9-3.2-26.6-1-38.8,3.8
				c6.5-8.3,16.9-9,26-9.5c4.5-0.3,9.3,0.4,13.9,1.7c8.4,2.3,15.9,7.2,21,14.1c0,0,0.1,0.1,0.1,0.1c0.5,0.7,1,1.4,1.5,2.2
				c6,9.7,7.1,19.9,8.1,31.1c1,11.7,7.5,25.6,2.6,35.8c-1.7,3.6-8.4,1.8-20.5,8.7c-8.2,5.1-18.2,12.9-27.2,12
				C168.6,171.4,166,152.1,164.2,143.2z M213.1,252.3c-7.1,0.8-14.7,0.7-21.4-1.2c-4.4-1.2-12.4-6-15.5-10.4c4.9,4.9,13.3,9,20,9.1
				c6.7,0.1,14.3,1.3,17.5-2.7c3.2-4,5.5-6.7,4.9-12.1c1.8,4.5,0.3,8.2,4.4,9.5c2.6,0.8,7.7-1.2,10.8-3.6c2.9-2.3,4.4-4.2,6.7-7.7
				C237.3,245.4,224.7,251,213.1,252.3z M334.9,144.9c0.2,0.2,0.4,0.4,0.6,0.6c1.7,1.4,3,3,4,4.8c4.9,7,8.1,16.4,3.8,22.8
				c-7.6,11.1-33.7,13.8-45.2,6.7c-11.9-7.3-14.2-26.5-15.7-40c-0.5-4.2,2.8-6.8,15.8-6.9C311.3,132.6,325.1,136,334.9,144.9z"/>
			<path fill="#231F20" d="M186.6,495.5c8.8-2.9,14.2-0.5,21.9,5.4c7.9,6,18.4,7.4,28.2,5.9c-5-1-11.4-5.4-11-6
				c0.4-0.7,21.1,3.6,32.1-2c-11.9,1.2-25.1,0.2-35.1-6.4c-7.5-5-14.8-7.5-25.1-4.8c-10.9,2.9-22,5-33.5,5.3
				C169.5,495.9,180.1,497.6,186.6,495.5z"/>
			<path fill="#231F20" d="M216.8,465.5c4.4,2.2,10.1,7.4,22.9,7.4c-12.7-4.5-24.5-13.2-30.5-25.3c-5-9.9-13.3-19-13.9-13.1
				c-0.7,7.4-1.4,15.4,3.8,26.6c3.7,7.9,25.5,20.4,25.8,19.8C224.9,480.9,212.5,463.3,216.8,465.5z"/>
		</g>
	</g>
</g>
</svg>
